<svg width="299" height="233" viewBox="0 0 299 233" fill="none" xmlns="http://www.w3.org/2000/svg">
<path d="M298.458 205.602H0V205.751H298.458V205.602Z" fill="#EBEBEB"/>
<path d="M141.469 178.979H26.2105C25.3076 178.978 24.4422 178.618 23.8043 177.979C23.1664 177.34 22.8081 176.474 22.8081 175.571V13.55C22.816 12.6523 23.1777 11.7939 23.8148 11.1613C24.4518 10.5287 25.3127 10.173 26.2105 10.1715H141.469C142.373 10.1715 143.24 10.5306 143.879 11.1698C144.518 11.809 144.877 12.6759 144.877 13.5799V175.571C144.877 176.475 144.518 177.342 143.879 177.981C143.24 178.62 142.373 178.979 141.469 178.979ZM26.2105 10.2909C25.3472 10.2924 24.5197 10.6365 23.9098 11.2476C23.2999 11.8586 22.9573 12.6867 22.9573 13.55V175.571C22.9573 176.434 23.2999 177.262 23.9098 177.873C24.5197 178.484 25.3472 178.828 26.2105 178.83H141.469C142.333 178.828 143.161 178.484 143.772 177.874C144.383 177.263 144.727 176.435 144.728 175.571V13.55C144.727 12.6861 144.383 11.8581 143.772 11.2472C143.161 10.6363 142.333 10.2924 141.469 10.2909H26.2105Z" fill="#EBEBEB"/>
<path d="M270.587 178.979H155.323C154.419 178.978 153.553 178.618 152.915 177.979C152.276 177.34 151.916 176.474 151.915 175.571V13.55C151.924 12.6517 152.287 11.7933 152.925 11.1609C153.563 10.5285 154.425 10.173 155.323 10.1715H270.587C271.484 10.1746 272.343 10.531 272.979 11.1634C273.615 11.7958 273.976 12.6533 273.984 13.55V175.571C273.984 176.473 273.626 177.338 272.99 177.977C272.353 178.616 271.489 178.976 270.587 178.979ZM155.323 10.2909C154.459 10.2924 153.631 10.6363 153.02 11.2472C152.409 11.8581 152.065 12.6861 152.064 13.55V175.571C152.065 176.435 152.409 177.263 153.02 177.874C153.631 178.484 154.459 178.828 155.323 178.83H270.587C271.451 178.828 272.279 178.484 272.89 177.874C273.501 177.263 273.845 176.435 273.846 175.571V13.55C273.845 12.6861 273.501 11.8581 272.89 11.2472C272.279 10.6363 271.451 10.2924 270.587 10.2909H155.323Z" fill="#EBEBEB"/>
<path d="M268.552 211.284H249.708V211.433H268.552V211.284Z" fill="#EBEBEB"/>
<path d="M200.17 209.667H180.227V209.816H200.17V209.667Z" fill="#EBEBEB"/>
<path d="M273.996 216.83H236.731V216.979H273.996V216.83Z" fill="#EBEBEB"/>
<path d="M42.7931 215.827H31.3145V215.976H42.7931V215.827Z" fill="#EBEBEB"/>
<path d="M66.1919 215.827H48.1113V215.976H66.1919V215.827Z" fill="#EBEBEB"/>
<path d="M145.731 213.308H113.163V213.457H145.731V213.308Z" fill="#EBEBEB"/>
<path d="M162.516 47.8547L128.504 81.873V195.162H247.881V47.8547H162.516Z" fill="white"/>
<path d="M247.881 195.484H128.498C128.413 195.484 128.331 195.45 128.27 195.389C128.21 195.329 128.176 195.247 128.176 195.162V81.8729C128.176 81.8307 128.184 81.7888 128.201 81.7499C128.217 81.7109 128.241 81.6756 128.271 81.6461L162.295 47.6219C162.357 47.5629 162.437 47.5288 162.522 47.5264H247.881C247.924 47.5264 247.965 47.5348 248.005 47.551C248.044 47.5672 248.079 47.5909 248.109 47.6208C248.139 47.6508 248.163 47.6863 248.179 47.7254C248.195 47.7645 248.204 47.8064 248.204 47.8488V195.162C248.204 195.204 248.195 195.246 248.179 195.285C248.163 195.324 248.139 195.36 248.109 195.389C248.079 195.419 248.044 195.443 248.005 195.459C247.965 195.476 247.924 195.484 247.881 195.484ZM128.826 194.845H247.559V48.1771H162.654L128.826 82.0043V194.845Z" fill="#E0E0E0"/>
<path d="M128.504 81.873L164.193 86.4752L162.516 47.8547L128.504 81.873Z" fill="#E6E6E6"/>
<path d="M128.504 81.8729H162.516V47.8547L128.504 81.8729Z" fill="white"/>
<path d="M162.516 82.1893H128.492C128.428 82.1896 128.366 82.1711 128.313 82.136C128.26 82.101 128.218 82.051 128.194 81.9924C128.169 81.9342 128.163 81.8699 128.175 81.8081C128.188 81.7462 128.22 81.6897 128.265 81.6461L162.289 47.622C162.335 47.5777 162.393 47.5475 162.455 47.5348C162.518 47.5221 162.582 47.5275 162.642 47.5503C162.7 47.5757 162.749 47.6174 162.784 47.6704C162.819 47.7234 162.838 47.7853 162.839 47.8488V81.873C162.837 81.9574 162.802 82.0379 162.742 82.097C162.682 82.1562 162.601 82.1893 162.516 82.1893ZM129.28 81.5506H162.2V48.6307L129.28 81.5506Z" fill="#E0E0E0"/>
<path d="M195.096 130.862L215.391 110.567C215.844 110.113 216.204 109.575 216.449 108.982C216.695 108.39 216.821 107.755 216.821 107.114C216.821 106.472 216.695 105.837 216.449 105.245C216.204 104.652 215.844 104.114 215.391 103.66C214.937 103.207 214.399 102.847 213.807 102.602C213.214 102.356 212.579 102.23 211.938 102.23C211.296 102.23 210.661 102.356 210.069 102.602C209.476 102.847 208.938 103.207 208.485 103.66L188.189 123.956L167.894 103.66C166.978 102.745 165.736 102.23 164.441 102.23C163.146 102.23 161.904 102.745 160.988 103.66C160.072 104.576 159.558 105.818 159.558 107.114C159.558 108.409 160.072 109.651 160.988 110.567L181.283 130.862L160.988 151.157C160.072 152.073 159.558 153.315 159.558 154.61C159.558 155.905 160.072 157.147 160.988 158.063C161.904 158.979 163.146 159.494 164.441 159.494C165.736 159.494 166.978 158.979 167.894 158.063L188.189 137.768L208.485 158.063C209.4 158.979 210.642 159.494 211.938 159.494C213.233 159.494 214.475 158.979 215.391 158.063C216.307 157.147 216.821 155.905 216.821 154.61C216.821 153.315 216.307 152.073 215.391 151.157L195.096 130.862Z" fill="#F0F0F0"/>
<path d="M133.112 114.035C131.967 115.179 130.415 115.821 128.796 115.821C127.178 115.821 125.626 115.179 124.481 114.035L104.896 94.444L113.527 85.8126L133.112 105.427C134.249 106.571 134.887 108.118 134.887 109.731C134.887 111.344 134.249 112.891 133.112 114.035Z" fill="#F0F0F0"/>
<path d="M104.893 94.482L113.525 85.8504L114.322 86.6481C115.15 87.4754 115.614 88.5974 115.614 89.7673C115.614 90.9372 115.15 92.0593 114.322 92.8865L111.929 95.2797C111.102 96.107 109.98 96.5717 108.81 96.5717C107.64 96.5717 106.518 96.107 105.691 95.2797L104.893 94.482Z" fill="#E0E0E0"/>
<path d="M50.5645 31.4873C44.6417 37.4161 40.6095 44.9678 38.9777 53.1877C37.3459 61.4076 38.1877 69.9268 41.3967 77.6684C44.6057 85.4101 50.0378 92.0265 57.0064 96.6815C63.975 101.337 72.1672 103.821 80.5475 103.821C88.9279 103.821 97.1201 101.337 104.089 96.6815C111.057 92.0265 116.489 85.4101 119.698 77.6684C122.907 69.9268 123.749 61.4076 122.117 53.1877C120.486 44.9678 116.453 37.4161 110.531 31.4873C106.595 27.5473 101.921 24.4217 96.776 22.2892C91.6313 20.1567 86.1167 19.059 80.5475 19.059C74.9784 19.059 69.4638 20.1567 64.3191 22.2892C59.1744 24.4217 54.5005 27.5473 50.5645 31.4873ZM108.083 89.0061C102.638 94.4514 95.6999 98.1597 88.1469 99.6621C80.594 101.164 72.7651 100.393 65.6504 97.4462C58.5357 94.4992 52.4546 89.5085 48.1762 83.1054C43.8978 76.7023 41.6142 69.1743 41.6142 61.4734C41.6142 53.7724 43.8978 46.2444 48.1762 39.8413C52.4546 33.4382 58.5357 28.4476 65.6504 25.5005C72.7651 22.5535 80.594 21.7823 88.1469 23.2847C95.6999 24.787 102.638 28.4953 108.083 33.9406C111.699 37.5563 114.567 41.8486 116.524 46.5727C118.481 51.2968 119.488 56.3601 119.488 61.4734C119.488 66.5867 118.481 71.6499 116.524 76.374C114.567 81.0981 111.699 85.3905 108.083 89.0061Z" fill="#E0E0E0"/>
<path d="M102.824 85.1739C102.544 85.1732 102.27 85.0895 102.037 84.9334C101.804 84.7772 101.622 84.5556 101.515 84.2964C101.408 84.0373 101.38 83.7522 101.434 83.477C101.489 83.2019 101.624 82.9491 101.822 82.7504C107.454 77.1019 110.618 69.4504 110.618 61.4734C110.618 53.4963 107.454 45.8448 101.822 40.1963C101.677 40.0677 101.56 39.9109 101.478 39.7355C101.396 39.56 101.351 39.3697 101.345 39.1762C101.34 38.9827 101.374 38.79 101.445 38.6101C101.516 38.4302 101.624 38.2667 101.761 38.1298C101.898 37.9929 102.061 37.8855 102.241 37.814C102.421 37.7426 102.614 37.7087 102.807 37.7144C103.001 37.7201 103.191 37.7652 103.366 37.8472C103.542 37.9291 103.699 38.046 103.827 38.1907C109.992 44.3699 113.454 52.742 113.454 61.4704C113.454 70.1988 109.992 78.5708 103.827 84.7501C103.696 84.8832 103.54 84.9891 103.368 85.0619C103.196 85.1346 103.011 85.1727 102.824 85.1739Z" fill="#E0E0E0"/>
<path d="M49.8905 70.1793C49.5711 70.1796 49.261 70.0719 49.0106 69.8735C48.7602 69.6752 48.5844 69.398 48.5116 69.087C47.4791 64.7146 47.3489 60.1775 48.1289 55.7531C48.9089 51.3287 50.5827 47.1097 53.0481 43.3539C53.2555 43.0373 53.5802 42.8161 53.9507 42.7388C54.3213 42.6616 54.7073 42.7347 55.0239 42.9421C55.3406 43.1495 55.5618 43.4741 55.6391 43.8447C55.7163 44.2152 55.6432 44.6012 55.4358 44.9179C53.1785 48.3487 51.6439 52.2034 50.9255 56.2469C50.2071 60.2904 50.32 64.4379 51.2574 68.4363C51.3017 68.6175 51.3096 68.8056 51.2807 68.9898C51.2517 69.174 51.1865 69.3506 51.0888 69.5094C50.9911 69.6682 50.8628 69.806 50.7114 69.9149C50.56 70.0237 50.3885 70.1015 50.2068 70.1435C50.1029 70.1661 49.9969 70.1781 49.8905 70.1793Z" fill="#E0E0E0"/>
<path d="M58.2705 85.1739C57.8941 85.1729 57.5334 85.0227 57.2677 84.756C54.7107 82.2088 52.5929 79.256 51.0001 76.0172C50.9178 75.8502 50.8692 75.6687 50.857 75.4829C50.8449 75.2972 50.8694 75.1108 50.9293 74.9346C50.9892 74.7583 51.0832 74.5956 51.2059 74.4556C51.3287 74.3157 51.4778 74.2013 51.6448 74.119C51.8117 74.0367 51.9933 73.9881 52.179 73.9759C52.3648 73.9638 52.5511 73.9883 52.7274 74.0482C52.9036 74.1081 53.0664 74.2021 53.2063 74.3248C53.3463 74.4476 53.4606 74.5967 53.543 74.7637C55.0033 77.7215 56.9392 80.4195 59.2733 82.7504C59.5387 83.0167 59.6877 83.3773 59.6877 83.7532C59.6877 84.1291 59.5387 84.4897 59.2733 84.756C59.0065 85.021 58.6466 85.171 58.2705 85.1739Z" fill="#E0E0E0"/>
<path d="M125.969 168.596L131.549 174.176L118.591 187.134C117.928 187.796 117.029 188.169 116.092 188.169C115.155 188.169 114.256 187.796 113.593 187.134L113.006 186.547C112.344 185.884 111.971 184.986 111.971 184.048C111.971 183.111 112.344 182.212 113.006 181.55L125.964 168.592L125.969 168.596Z" fill="#F0F0F0"/>
<path d="M125.977 168.608L131.548 174.179L131.282 174.445C130.681 175.046 129.866 175.384 129.016 175.384C128.166 175.384 127.35 175.046 126.749 174.445L125.702 173.398C125.101 172.797 124.764 171.982 124.764 171.132C124.764 170.282 125.101 169.466 125.702 168.865L125.968 168.599L125.977 168.608Z" fill="#E0E0E0"/>
<path d="M169.733 138.329L156.661 151.396C155.21 152.951 154.419 155.009 154.457 157.135C154.494 159.261 155.356 161.29 156.861 162.793C158.365 164.297 160.395 165.156 162.522 165.192C164.648 165.227 166.705 164.434 168.259 162.982L173.547 157.699C174.661 150.994 173.306 144.112 169.733 138.329Z" fill="#F0F0F0"/>
<path d="M174.658 150.936C174.283 145.525 172.313 140.346 168.995 136.055C165.677 131.764 161.161 128.553 156.018 126.829C150.876 125.105 145.337 124.944 140.103 126.368C134.869 127.792 130.175 130.736 126.614 134.827C123.054 138.919 120.786 143.975 120.099 149.355C119.412 154.736 120.336 160.199 122.754 165.054C125.173 169.91 128.976 173.939 133.685 176.632C138.393 179.325 143.794 180.562 149.205 180.185C156.458 179.68 163.214 176.315 167.987 170.83C172.76 165.345 175.159 158.19 174.658 150.936ZM122.183 154.589C121.837 149.621 122.972 144.662 125.445 140.34C127.917 136.017 131.616 132.525 136.074 130.304C140.531 128.084 145.547 127.235 150.487 127.866C155.427 128.496 160.069 130.577 163.826 133.846C167.583 137.114 170.286 141.424 171.594 146.229C172.902 151.034 172.755 156.119 171.173 160.841C169.591 165.563 166.644 169.709 162.705 172.756C158.766 175.803 154.012 177.613 149.044 177.958C142.383 178.421 135.811 176.219 130.774 171.836C125.737 167.454 122.646 161.25 122.183 154.589Z" fill="#E0E0E0"/>
<path d="M133.339 168.897C131.227 167.066 129.496 164.836 128.248 162.334C126.999 159.833 126.257 157.11 126.063 154.321C126.049 154.197 126.06 154.073 126.096 153.954C126.132 153.835 126.191 153.725 126.271 153.629C126.35 153.534 126.448 153.456 126.559 153.4C126.669 153.343 126.79 153.31 126.914 153.301C127.037 153.293 127.162 153.31 127.279 153.35C127.396 153.391 127.503 153.455 127.595 153.539C127.687 153.622 127.761 153.724 127.812 153.836C127.864 153.949 127.892 154.071 127.895 154.195C128.261 159.336 130.649 164.122 134.535 167.506C138.421 170.89 143.49 172.596 148.632 172.252C148.874 172.235 149.113 172.316 149.296 172.475C149.479 172.635 149.592 172.86 149.608 173.102C149.625 173.345 149.544 173.584 149.385 173.767C149.225 173.95 149 174.062 148.758 174.078C145.973 174.272 143.178 173.914 140.532 173.025C137.886 172.136 135.442 170.733 133.339 168.897Z" fill="#E0E0E0"/>
<path d="M166.325 148.059C166.189 147.941 166.091 147.785 166.044 147.611C165.326 145.056 164.094 142.675 162.424 140.612C160.754 138.549 158.681 136.848 156.332 135.613C156.127 135.495 155.975 135.302 155.909 135.075C155.842 134.847 155.866 134.603 155.975 134.392C156.085 134.182 156.271 134.022 156.496 133.946C156.72 133.87 156.965 133.883 157.18 133.984C159.751 135.336 162.02 137.197 163.848 139.455C165.676 141.713 167.024 144.32 167.811 147.116C167.844 147.232 167.853 147.353 167.839 147.473C167.824 147.592 167.786 147.708 167.727 147.813C167.667 147.918 167.588 148.01 167.493 148.084C167.397 148.158 167.289 148.212 167.172 148.244C167.027 148.284 166.873 148.288 166.726 148.256C166.578 148.224 166.44 148.156 166.325 148.059Z" fill="#E0E0E0"/>
<path d="M145.283 133.214C145.101 133.052 144.989 132.824 144.973 132.581C144.956 132.339 145.036 132.1 145.195 131.917C145.354 131.734 145.579 131.62 145.82 131.602C148.149 131.44 150.487 131.66 152.745 132.253C152.862 132.284 152.973 132.337 153.069 132.411C153.166 132.485 153.247 132.577 153.309 132.682C153.37 132.787 153.41 132.903 153.426 133.023C153.443 133.144 153.435 133.266 153.404 133.384C153.373 133.501 153.319 133.612 153.246 133.708C153.172 133.805 153.08 133.887 152.975 133.948C152.87 134.009 152.754 134.049 152.634 134.065C152.513 134.082 152.391 134.074 152.273 134.043C150.213 133.498 148.077 133.297 145.952 133.446C145.707 133.459 145.467 133.375 145.283 133.214Z" fill="#E0E0E0"/>
<path d="M149.229 232.558C213.148 232.558 264.965 229.533 264.965 225.801C264.965 222.069 213.148 219.044 149.229 219.044C85.3099 219.044 33.4932 222.069 33.4932 225.801C33.4932 229.533 85.3099 232.558 149.229 232.558Z" fill="#F5F5F5"/>
<path d="M82.2669 64.4192C77.4558 69.2602 85.6335 76.7753 80.2314 80.2255C84.6427 82.4401 100.103 85.2515 104.108 76.5425C101.189 74.2743 103.219 68.6991 100.527 63.3447C96.4974 55.4058 77.4558 58.9216 82.2669 64.4192Z" fill="#263238"/>
<path d="M82.703 64.2939C81.2047 64.0432 76.1369 66.5621 79.9094 73.3252C82.9477 78.7929 80.4168 79.1809 80.4168 79.1809C80.4168 79.1809 83.4013 79.2645 81.6106 75.1995C79.7124 70.8599 78.823 66.3592 82.703 64.2939Z" fill="#263238"/>
<path d="M118.189 107.236C118.005 106.898 117.695 106.646 117.326 106.535C116.958 106.423 116.56 106.46 116.219 106.639L115.867 106.824C115.754 106.884 115.539 107.027 115.366 107.128C115.193 107.23 114.99 107.343 114.799 107.439C114.422 107.628 114.033 107.792 113.635 107.928C112.897 108.196 112.121 108.343 111.337 108.364C110.616 108.373 109.899 108.257 109.217 108.024C108.784 107.863 108.367 107.663 107.97 107.427C107.457 106.293 106.967 105.147 106.549 103.965C106.042 102.586 105.594 101.177 105.2 99.7506C104.806 98.324 104.46 96.8794 104.174 95.4289C104.024 94.7067 103.893 93.9784 103.774 93.2562L103.612 92.1757C103.559 91.8295 103.511 91.4356 103.481 91.161V91.0416C103.402 90.25 103.012 89.5223 102.396 89.0186C101.78 88.5148 100.99 88.2763 100.198 88.3555C99.4065 88.4346 98.6788 88.825 98.1751 89.4407C97.6713 90.0564 97.4328 90.8469 97.512 91.6385C97.5537 92.1459 97.5896 92.5339 97.6433 92.9577C97.697 93.3815 97.7567 93.7874 97.8164 94.1993C97.9477 95.023 98.0969 95.8348 98.2641 96.6466C98.5959 98.2597 99.0144 99.8538 99.5176 101.422C99.7504 102.21 100.037 102.986 100.306 103.768C100.574 104.55 100.902 105.314 101.243 106.072C101.894 107.604 102.634 109.096 103.457 110.543L103.529 110.674C103.743 111.063 104.064 111.382 104.454 111.593C105.582 112.208 106.801 112.64 108.065 112.871C109.364 113.1 110.694 113.072 111.981 112.787C113.798 112.366 115.467 111.46 116.81 110.167C117.031 109.964 117.24 109.755 117.407 109.534C117.574 109.313 117.777 109.104 118.004 108.794C118.179 108.578 118.289 108.317 118.322 108.042C118.355 107.766 118.309 107.487 118.189 107.236Z" fill="#FF8B7B"/>
<path d="M122.159 101.649H121.986C121.414 101.637 120.848 101.756 120.33 101.999C119.813 102.241 119.358 102.599 119.001 103.046L116.118 106.663V109.134C118.434 110.053 121.371 107.576 121.371 107.576L122.857 107.2C123.358 107.075 123.794 106.769 124.082 106.342C124.369 105.914 124.488 105.394 124.415 104.884L124.2 103.434C124.13 102.941 123.886 102.49 123.511 102.162C123.136 101.835 122.657 101.652 122.159 101.649Z" fill="#FF8B7B"/>
<path d="M103.404 87.6989C105.332 89.6806 105.451 95.5961 105.451 95.5961L97.7391 101.804C97.7391 101.804 94.5695 93.0293 96.3244 89.9313C97.8107 87.3049 100.945 85.1739 103.404 87.6989Z" fill="#407BFF"/>
<g opacity="0.2">
<path d="M103.404 87.6989C105.332 89.6806 105.451 95.5961 105.451 95.5961L97.7391 101.804C97.7391 101.804 94.5695 93.0293 96.3244 89.9313C97.8107 87.3049 100.945 85.1739 103.404 87.6989Z" fill="white"/>
</g>
<path d="M90.6416 220.686L94.9036 221.151L95.4886 209.571L91.2266 209.1L90.6416 220.686Z" fill="#FF8B7B"/>
<path d="M95.6017 218.37H90.5936C90.4926 218.366 90.3944 218.403 90.3197 218.471C90.245 218.539 90.1998 218.633 90.1937 218.734L89.8594 223.467C89.8593 223.715 89.956 223.953 90.1289 224.13C90.3017 224.307 90.537 224.41 90.7846 224.416C92.8977 224.416 92.9216 224.416 95.5599 224.416H102.669C104.854 224.416 104.86 222.202 103.917 221.999C99.6727 221.104 98.0192 219.862 96.521 218.68C96.2577 218.477 95.9341 218.368 95.6017 218.37Z" fill="#263238"/>
<path opacity="0.2" d="M95.4887 209.577L95.1843 215.546H90.8984L91.2267 209.105L95.4887 209.577Z" fill="black"/>
<path d="M97.787 117.18C97.787 117.18 101.476 148.059 101.476 161.788C98.5689 180.889 96.1037 214.412 96.1037 214.412L90.2061 214.257C90.2061 214.257 87.526 177.749 90.0092 161.985C86.8276 147.862 82.8999 115.27 82.8999 115.27L97.787 117.18Z" fill="#263238"/>
<path opacity="0.2" d="M86.416 125.776C85.713 126.085 85.0311 126.44 84.3745 126.839C85.1863 132.933 86.2548 140.604 87.3889 147.683C89.3229 141.857 88.2783 129.047 86.416 125.776Z" fill="black"/>
<path d="M44.4878 209.935L48.0036 212.389L54.0683 202.504L50.5525 200.05L44.4878 209.935Z" fill="#FF8B7B"/>
<path d="M48.8929 211.093L45.9083 207.076C45.8515 206.994 45.7646 206.937 45.6664 206.918C45.5682 206.899 45.4664 206.919 45.383 206.975L41.3837 209.541C41.1842 209.688 41.0504 209.908 41.0113 210.152C40.9722 210.397 41.031 210.647 41.1748 210.849C42.4223 212.55 42.4462 212.562 44.0161 214.675C44.9891 215.97 46.929 218.579 48.2661 220.375C49.6032 222.172 51.3522 220.811 50.9463 219.928C49.1555 215.994 49.1555 213.958 49.1913 212.024C49.1974 211.69 49.0925 211.362 48.8929 211.093Z" fill="#263238"/>
<path opacity="0.2" d="M54.0622 202.504L50.9404 207.601L47.1738 205.548L50.5524 200.05L54.0622 202.504Z" fill="black"/>
<path d="M66.0545 214.078C63.0042 214.078 56.6531 214.078 56.5456 209.589C56.462 206.067 60.8195 204.605 64.5801 204.426C64.9968 204.406 65.4133 204.468 65.8059 204.609C66.1985 204.75 66.5595 204.967 66.8682 205.247C67.177 205.528 67.4275 205.866 67.6053 206.243C67.7832 206.621 67.885 207.029 67.9049 207.446V207.685C72.1669 207.482 74.9246 206.551 75.9334 204.963C78.2077 201.381 73.8502 192.135 69.6419 183.199C64.6875 172.688 59.0765 160.779 58.9691 149.372C58.9652 148.955 59.0434 148.541 59.1994 148.155C59.3553 147.768 59.5859 147.416 59.8781 147.118C60.1702 146.82 60.5181 146.583 60.9018 146.42C61.2856 146.257 61.6978 146.171 62.1148 146.167C62.9514 146.168 63.7538 146.499 64.3481 147.088C64.9425 147.677 65.281 148.476 65.2904 149.312C65.3859 159.329 70.6627 170.569 75.3544 180.489C80.7267 191.938 85.4124 201.829 81.2639 208.365C78.8583 212.209 73.8741 214.078 66.0545 214.078Z" fill="#407BFF"/>
<path d="M93.0654 116.572C93.0654 116.572 82.8821 151.861 77.9098 164.659C68.2755 181.409 52.2901 207.04 52.2901 207.04L47.1865 204.056C47.1865 204.056 59.1248 174.449 67.1533 160.66C69.3082 146.334 77.4561 114.542 77.4561 114.542L93.0654 116.572Z" fill="#263238"/>
<path d="M49.8126 213.976C50.0152 214.312 50.3272 214.567 50.6961 214.699C50.804 214.725 50.9171 214.72 51.0226 214.685C51.128 214.65 51.2217 214.587 51.293 214.502C51.3426 214.456 51.3805 214.399 51.4034 214.336C51.4262 214.272 51.4334 214.204 51.4243 214.138C51.3527 213.421 49.5022 212.49 49.1322 212.311C49.1106 212.302 49.0865 212.302 49.0646 212.309C49.0426 212.317 49.0241 212.332 49.0128 212.353C48.9984 212.375 48.9907 212.401 48.9907 212.427C48.9907 212.454 48.9984 212.48 49.0128 212.502C49.232 213.018 49.4998 213.511 49.8126 213.976ZM51.0841 213.976C51.1366 214.042 51.1715 214.12 51.1855 214.203C51.1884 214.226 51.1856 214.25 51.1772 214.272C51.1689 214.294 51.1554 214.313 51.1378 214.329C51.0896 214.383 51.0278 214.424 50.9586 214.448C50.8893 214.471 50.8152 214.475 50.7438 214.46C50.3499 214.382 49.8305 213.744 49.3291 212.735C49.9792 213.038 50.5728 213.45 51.0841 213.953V213.976Z" fill="#407BFF"/>
<path d="M48.9828 212.526L49.0186 212.556C49.6155 212.884 51.1675 213.153 51.5077 212.657C51.5648 212.567 51.5926 212.461 51.5873 212.354C51.5819 212.247 51.5437 212.145 51.4779 212.06C50.881 211.004 49.0902 212.245 49.0126 212.299C48.9948 212.313 48.9807 212.331 48.9713 212.352C48.962 212.373 48.9577 212.396 48.9589 212.418C48.9565 212.456 48.9648 212.493 48.9828 212.526ZM51.2511 212.18C51.2685 212.2 51.2844 212.222 51.2988 212.245C51.3645 212.359 51.3764 212.442 51.3406 212.49C51.1436 212.777 49.9975 212.675 49.329 212.412C49.7767 212.144 50.8213 211.601 51.2511 212.18Z" fill="#407BFF"/>
<path d="M98.4914 219.355C98.8826 219.39 99.2743 219.291 99.6016 219.074C99.6846 219.001 99.7458 218.907 99.7785 218.802C99.8112 218.696 99.814 218.584 99.7867 218.477C99.7781 218.41 99.7543 218.345 99.7171 218.288C99.6799 218.231 99.6302 218.184 99.5718 218.149C98.9749 217.785 97.1065 218.71 96.7424 218.901C96.7219 218.912 96.7059 218.93 96.6972 218.952C96.6885 218.974 96.6876 218.998 96.6946 219.02C96.7037 219.045 96.7188 219.068 96.7386 219.085C96.7584 219.103 96.7823 219.116 96.8081 219.122C97.3597 219.257 97.9238 219.335 98.4914 219.355ZM99.2315 218.322C99.3165 218.316 99.4013 218.335 99.4763 218.376C99.5061 218.376 99.536 218.417 99.5479 218.489C99.5635 218.56 99.5595 218.635 99.5364 218.704C99.5133 218.773 99.4719 218.835 99.4166 218.883C99.1241 219.152 98.3003 219.187 97.1901 218.99C97.8174 218.654 98.4978 218.428 99.2017 218.322H99.2315Z" fill="#407BFF"/>
<path d="M96.8079 219.152H96.8497C97.4466 218.877 98.6106 217.785 98.4196 217.218C98.3798 217.124 98.3133 217.044 98.2284 216.988C98.1435 216.931 98.0439 216.901 97.9421 216.901C96.7482 216.764 96.6647 218.925 96.6587 219.014C96.6589 219.038 96.665 219.061 96.6764 219.082C96.6879 219.103 96.7044 219.121 96.7244 219.134C96.7497 219.148 96.7789 219.154 96.8079 219.152ZM97.8824 217.122H97.9659C98.0913 217.122 98.1689 217.176 98.1868 217.236C98.3002 217.564 97.5362 218.429 96.9213 218.805C96.9751 218.286 97.1661 217.122 97.8943 217.122H97.8824Z" fill="#407BFF"/>
<path d="M77.4561 114.572L97.787 117.175C102.371 101.738 103.882 94.2828 104.287 90.6954C104.395 89.7937 104.184 88.8827 103.691 88.1199C103.199 87.357 102.455 86.7901 101.589 86.5169C100.396 86.1349 98.8555 85.6813 97.3274 85.3231C96.8081 85.1858 96.2768 85.0605 95.7575 84.9411C92.7138 84.3236 89.6298 83.9246 86.5292 83.7473C86.0696 83.7055 85.6159 83.6816 85.1563 83.6577C84.2549 83.61 83.3655 83.598 82.5537 83.598C81.9444 83.5973 81.3416 83.7235 80.7838 83.9686C80.226 84.2136 79.7253 84.5722 79.3137 85.0215C78.902 85.4707 78.5885 86.0008 78.393 86.5779C78.1976 87.155 78.1244 87.7664 78.1783 88.3734C78.3395 90.1641 78.4648 91.8295 78.5604 93.3576C78.7872 96.9391 78.8588 99.8043 78.8051 102.311C78.6831 106.428 78.232 110.528 77.4561 114.572Z" fill="#407BFF"/>
<g opacity="0.3">
<path d="M77.4561 114.572L97.787 117.175C102.371 101.738 103.882 94.2828 104.287 90.6954C104.395 89.7937 104.184 88.8827 103.691 88.1199C103.199 87.357 102.455 86.7901 101.589 86.5169C100.396 86.1349 98.8555 85.6813 97.3274 85.3231C96.8081 85.1858 96.2768 85.0605 95.7575 84.9411C92.7138 84.3236 89.6298 83.9246 86.5292 83.7473C86.0696 83.7055 85.6159 83.6816 85.1563 83.6577C84.2549 83.61 83.3655 83.598 82.5537 83.598C81.9444 83.5973 81.3416 83.7235 80.7838 83.9686C80.226 84.2136 79.7253 84.5722 79.3137 85.0215C78.902 85.4707 78.5885 86.0008 78.393 86.5779C78.1976 87.155 78.1244 87.7664 78.1783 88.3734C78.3395 90.1641 78.4648 91.8295 78.5604 93.3576C78.7872 96.9391 78.8588 99.8043 78.8051 102.311C78.6831 106.428 78.232 110.528 77.4561 114.572Z" fill="white"/>
</g>
<path opacity="0.3" d="M78.7926 102.287C81.4787 98.8135 82.4517 94.838 81.5802 92.6473L78.5479 93.3278C78.7926 96.8973 78.8582 99.7745 78.7926 102.287Z" fill="#407BFF"/>
<path d="M97.3268 85.2873C96.8015 85.15 96.2762 85.0247 95.7569 84.9053C92.7108 84.2906 89.625 83.8917 86.5226 83.7115C86.063 83.6757 85.6094 83.6518 85.1557 83.6279L84.3618 83.5921L84.9587 84.6367C85.0423 84.78 87.0718 88.0988 92.1217 91.6684L93.2021 92.4205L94.2408 91.6266C95.241 90.9091 96.0583 89.9662 96.6266 88.8743C97.1948 87.7823 97.4981 86.5719 97.5119 85.3411L97.3268 85.2873Z" fill="white"/>
<path d="M88.7674 77.5752C88.5763 80.0882 87.9854 82.649 86.5229 83.7234C86.5229 83.7234 88.3853 86.8214 93.2084 90.2059C96.2288 87.8958 95.7572 84.9053 95.7572 84.9053C92.5458 83.7115 92.7727 81.485 94.1277 77.9333L91.6206 76.5843C91.4043 76.3459 91.1227 76.1764 90.8108 76.0969C90.499 76.0173 90.1706 76.0312 89.8665 76.1368C89.5625 76.2424 89.2962 76.435 89.1007 76.6908C88.9053 76.9465 88.7894 77.2541 88.7674 77.5752Z" fill="#FF8B7B"/>
<path opacity="0.2" d="M91.6203 76.5843C91.4172 76.3599 91.1559 76.196 90.8655 76.1108C90.5751 76.0256 90.2667 76.0223 89.9745 76.1014C89.6823 76.1805 89.4177 76.3388 89.2099 76.5588C89.0021 76.7789 88.8591 77.0521 88.7969 77.3484C89.7492 79.2685 91.285 80.8377 93.1842 81.8312C93.2522 80.485 93.57 79.1633 94.1214 77.9333L91.6203 76.5843Z" fill="black"/>
<path d="M84.8638 69.6959C86.1113 74.5488 86.5351 76.6261 89.5018 78.6497C93.9608 81.7178 99.6494 79.1272 99.8702 74.0056C100.079 69.3915 98.0078 62.2285 92.8266 61.2018C91.6828 60.968 90.4982 61.031 89.3857 61.385C88.2732 61.7389 87.2699 62.3719 86.4715 63.2236C85.673 64.0753 85.1061 65.1174 84.8246 66.2504C84.5432 67.3834 84.5567 68.5696 84.8638 69.6959Z" fill="#FF8B7B"/>
<path d="M97.2138 62.2046C94.291 64.8028 90.8237 66.7139 87.0662 67.7977C87.0662 67.7977 90.7731 75.683 83.8369 73.6952C81.8253 66.9799 83.8369 63.4939 85.6277 61.8524C91.1432 60.0617 95.0231 59.4648 97.2138 62.2046Z" fill="#263238"/>
<path d="M84.631 74.4772C85.0377 75.3564 85.776 76.0389 86.6844 76.3754C87.8783 76.8052 88.5886 75.7785 88.3319 74.5846C88.0991 73.5162 87.1918 72 85.9442 72.0776C85.6744 72.1006 85.4145 72.1901 85.1876 72.338C84.9607 72.4858 84.7739 72.6875 84.6439 72.9251C84.5139 73.1627 84.4447 73.4287 84.4424 73.6995C84.4402 73.9703 84.505 74.2375 84.631 74.4772Z" fill="#FF8B7B"/>
<path d="M77.3068 113.342L76.1547 115.044C76.0652 115.175 76.2144 115.342 76.4472 115.372L97.769 118.106C97.9541 118.106 98.1152 118.058 98.1451 117.945L98.5629 116.154C98.5629 116.028 98.4436 115.903 98.2466 115.873L77.653 113.235C77.5909 113.22 77.5261 113.223 77.4653 113.242C77.4044 113.26 77.3497 113.295 77.3068 113.342Z" fill="#407BFF"/>
<path d="M79.7716 115.999L79.2224 115.927C79.115 115.927 79.0374 115.843 79.0553 115.778L79.6164 113.444C79.6378 113.405 79.6718 113.374 79.7131 113.356C79.7543 113.339 79.8002 113.336 79.8432 113.348L80.3984 113.42C80.5058 113.42 80.5834 113.498 80.5655 113.569L80.0044 115.897C79.9865 115.969 79.885 116.011 79.7716 115.999Z" fill="#263238"/>
<path d="M96.1925 118.1L95.6433 118.034C95.5359 118.034 95.4583 117.951 95.4762 117.879L96.0373 115.551C96.0373 115.485 96.1567 115.438 96.2641 115.449L96.8193 115.521C96.9267 115.521 97.0043 115.605 96.9864 115.67L96.4253 118.004C96.4074 118.07 96.3059 118.118 96.1925 118.1Z" fill="#263238"/>
<path d="M87.9851 117.049L87.4359 116.978C87.3225 116.978 87.2449 116.9 87.2628 116.828L87.8239 114.5C87.8239 114.429 87.9433 114.387 88.0567 114.399L88.6059 114.471C88.7133 114.471 88.7909 114.554 88.779 114.62L88.2119 116.954C88.2 117.019 88.0925 117.061 87.9851 117.049Z" fill="#263238"/>
<path d="M93.1782 69.487C93.2498 69.8869 93.5244 70.1734 93.7751 70.1197C94.0258 70.066 94.187 69.7078 94.1094 69.3079C94.0318 68.908 93.7572 68.6214 93.5125 68.6751C93.2677 68.7289 93.1185 69.087 93.1782 69.487Z" fill="#263238"/>
<path d="M97.6914 68.6214C97.769 69.0214 98.0436 69.3019 98.2884 69.2542C98.5331 69.2064 98.7002 68.8363 98.6226 68.4364C98.545 68.0365 98.2704 67.7559 98.0257 67.8037C97.781 67.8514 97.6198 68.2215 97.6914 68.6214Z" fill="#263238"/>
<path d="M97.894 67.8514L98.8014 67.3858C98.8014 67.3858 98.491 68.2335 97.894 67.8514Z" fill="#263238"/>
<path d="M96.4976 69.5168C97.031 70.3577 97.6755 71.1227 98.4137 71.7911C98.2388 71.9769 98.0251 72.1219 97.7878 72.2158C97.5505 72.3097 97.2954 72.3501 97.0408 72.3343L96.4976 69.5168Z" fill="#FF5652"/>
<path d="M93.6799 73.946C93.6619 73.9668 93.6517 73.9932 93.6509 74.0208C93.6502 74.0483 93.659 74.0753 93.6759 74.0971C93.6927 74.1188 93.7166 74.1341 93.7435 74.1403C93.7703 74.1465 93.7985 74.1432 93.8232 74.131C94.2742 73.9009 94.7733 73.781 95.2796 73.781C95.786 73.781 96.2851 73.9009 96.7361 74.131C96.7631 74.1464 96.7951 74.1506 96.8252 74.1428C96.8553 74.135 96.8811 74.1158 96.8973 74.0892C96.9136 74.062 96.9189 74.0296 96.9123 73.9986C96.9056 73.9676 96.8875 73.9402 96.8615 73.9221C96.3747 73.6727 95.8355 73.5427 95.2886 73.5427C94.7416 73.5427 94.2025 73.6727 93.7157 73.9221C93.7157 73.9221 93.7157 73.934 93.6799 73.946Z" fill="#263238"/>
<path d="M91.6208 68.2573C91.6576 68.2346 91.6867 68.2014 91.7043 68.1618C91.8287 67.8898 92.0159 67.6511 92.2504 67.4654C92.4849 67.2796 92.76 67.1521 93.0534 67.0934C93.0848 67.0897 93.1152 67.0798 93.1428 67.0642C93.1704 67.0487 93.1946 67.0278 93.2141 67.0028C93.2335 66.9778 93.2478 66.9492 93.2561 66.9186C93.2643 66.888 93.2665 66.8561 93.2623 66.8247C93.2593 66.7935 93.2501 66.7633 93.2352 66.7357C93.2203 66.7082 93.2 66.6839 93.1754 66.6644C93.1509 66.6449 93.1227 66.6305 93.0925 66.6222C93.0623 66.6138 93.0307 66.6117 92.9996 66.6158C92.6265 66.6855 92.2754 66.8432 91.9754 67.0757C91.6754 67.3083 91.4351 67.609 91.2746 67.9529C91.2514 68 91.2444 68.0534 91.2546 68.1049C91.2648 68.1564 91.2917 68.203 91.3311 68.2377C91.3705 68.2723 91.4202 68.293 91.4726 68.2966C91.525 68.3002 91.577 68.2864 91.6208 68.2573Z" fill="#263238"/>
<path d="M99.0339 65.231L99.0638 65.2012C99.082 65.1753 99.0949 65.1462 99.1017 65.1154C99.1086 65.0845 99.1092 65.0526 99.1037 65.0216C99.0981 64.9905 99.0865 64.9608 99.0694 64.9342C99.0523 64.9077 99.0301 64.8848 99.0041 64.8669C98.6955 64.6451 98.3385 64.5001 97.9627 64.4441C97.5869 64.388 97.2031 64.4224 96.8432 64.5445C96.7857 64.5696 96.7401 64.6158 96.7156 64.6735C96.6912 64.7313 96.6899 64.7962 96.7119 64.8549C96.7358 64.9134 96.7818 64.9601 96.84 64.9847C96.8982 65.0093 96.9637 65.0099 97.0223 64.9863C97.3081 64.8926 97.6122 64.8686 97.9092 64.9164C98.2062 64.9642 98.4874 65.0823 98.7295 65.2608C98.7753 65.2935 98.8313 65.3084 98.8873 65.3029C98.9432 65.2975 98.9953 65.2719 99.0339 65.231Z" fill="#263238"/>
<path d="M93.3994 68.717L94.3067 68.2574C94.3067 68.2574 93.9545 69.099 93.3994 68.717Z" fill="#263238"/>
<path d="M62.1447 152.518C61.3076 152.518 60.5044 152.187 59.9097 151.598C59.315 151.009 58.977 150.209 58.9691 149.372C58.8855 140.896 61.7089 133.739 67.1349 128.677C73.8144 122.445 84.2306 119.55 96.4793 120.517C105.069 121.198 110.578 119.109 116.953 116.679C118.004 116.285 119.061 115.879 120.147 115.485C120.939 115.197 121.812 115.235 122.576 115.591C123.339 115.947 123.93 116.592 124.218 117.383C124.506 118.175 124.468 119.049 124.112 119.812C123.756 120.576 123.111 121.166 122.32 121.454C121.263 121.836 120.236 122.23 119.216 122.618C112.715 125.09 106 127.638 95.9778 126.851C85.5318 126.021 76.8288 128.319 71.4685 133.321C67.2901 137.189 65.2546 142.567 65.3203 149.312C65.3242 149.73 65.246 150.143 65.09 150.53C64.934 150.917 64.7034 151.269 64.4113 151.567C64.1192 151.864 63.7713 152.102 63.3875 152.265C63.0037 152.428 62.5916 152.514 62.1745 152.518H62.1447Z" fill="#407BFF"/>
<path d="M135.586 125.938L122.813 130.618C121.747 131.008 120.57 130.959 119.54 130.482C118.51 130.004 117.712 129.137 117.322 128.071L112.047 113.672C111.657 112.606 111.705 111.429 112.183 110.399C112.661 109.37 113.528 108.572 114.593 108.181L127.367 103.502L135.58 125.921L135.586 125.938Z" fill="#407BFF"/>
<path opacity="0.7" d="M135.586 125.938L122.813 130.618C121.747 131.008 120.57 130.959 119.54 130.482C118.51 130.004 117.712 129.137 117.322 128.071L112.047 113.672C111.657 112.606 111.705 111.429 112.183 110.399C112.661 109.37 113.528 108.572 114.593 108.181L127.367 103.502L135.58 125.921L135.586 125.938Z" fill="white"/>
<path opacity="0.2" d="M121.675 105.582L127.376 103.499L135.59 125.931L129.889 128.02C129.51 127.653 129.22 127.204 129.041 126.707L121.878 107.134C121.691 106.64 121.622 106.109 121.675 105.582Z" fill="#407BFF"/>
<path d="M140.177 109.087L139.617 109.292L140.984 113.025L141.545 112.82L140.177 109.087Z" fill="#407BFF"/>
<path d="M138.753 106.967L136.741 101.464C136.396 100.531 135.774 99.7254 134.957 99.1566C134.141 98.5878 133.17 98.2826 132.175 98.2822C131.609 98.2806 131.047 98.3796 130.515 98.5747L126.886 99.9058L126.677 99.3447L130.312 98.0136C130.909 97.7949 131.54 97.6837 132.175 97.6853C133.293 97.6879 134.383 98.0325 135.3 98.6726C136.216 99.3128 136.915 100.218 137.302 101.267L139.314 106.77L138.753 106.967Z" fill="#407BFF"/>
<path d="M135.686 127.546L141.016 125.618C142.758 124.988 143.659 123.065 143.029 121.324L135.794 101.321C135.164 99.579 133.241 98.6779 131.5 99.3078L126.169 101.236C124.428 101.866 123.526 103.788 124.156 105.53L131.392 125.533C132.022 127.275 133.944 128.176 135.686 127.546Z" fill="#407BFF"/>
<path d="M132.635 107.391C132.756 107.724 132.777 108.085 132.693 108.43C132.609 108.774 132.425 109.086 132.164 109.325C131.903 109.565 131.576 109.722 131.226 109.776C130.876 109.83 130.517 109.779 130.196 109.629C129.875 109.479 129.606 109.238 129.422 108.935C129.238 108.632 129.148 108.281 129.164 107.927C129.18 107.573 129.3 107.232 129.51 106.946C129.72 106.66 130.009 106.443 130.343 106.323C130.788 106.161 131.28 106.183 131.709 106.383C132.139 106.583 132.472 106.946 132.635 107.391Z" fill="#263238"/>
<path d="M137.094 119.562C137.215 119.895 137.235 120.256 137.151 120.6C137.067 120.944 136.883 121.255 136.622 121.495C136.361 121.734 136.035 121.891 135.685 121.945C135.336 121.999 134.977 121.948 134.656 121.799C134.335 121.65 134.066 121.409 133.882 121.106C133.698 120.804 133.607 120.454 133.622 120.1C133.637 119.746 133.757 119.405 133.965 119.119C134.174 118.833 134.463 118.615 134.796 118.494C135.017 118.413 135.252 118.376 135.487 118.386C135.722 118.396 135.953 118.452 136.166 118.552C136.38 118.651 136.572 118.791 136.731 118.965C136.89 119.138 137.013 119.341 137.094 119.562Z" fill="#263238"/>
<path d="M84.7618 118.124L84.7141 118.07C83.7829 117.139 82.798 116.124 81.9086 115.085C81.0192 114.047 80.1477 113.008 79.3538 111.934C78.5754 110.885 77.8675 109.787 77.2347 108.645C76.7819 107.828 76.3966 106.975 76.0827 106.096C76.4408 104.902 76.8229 103.708 77.2765 102.562C77.7958 101.183 78.3808 99.8282 79.0195 98.4911C79.6582 97.154 80.3387 95.8408 81.0729 94.5574C81.4311 93.9127 81.8071 93.2741 82.1951 92.6473L82.792 91.728C82.9771 91.4296 83.1979 91.1311 83.3531 90.8744L83.4188 90.7789C83.8431 90.1322 83.9997 89.3459 83.8557 88.5859C83.7116 87.8259 83.2781 87.1515 82.6465 86.7049C82.0149 86.2583 81.2345 86.0743 80.47 86.1918C79.7054 86.3093 79.0163 86.7191 78.548 87.3347C78.2495 87.7406 78.0227 88.063 77.7839 88.4152C77.5451 88.7673 77.3302 89.1195 77.1034 89.4717C76.6677 90.1761 76.2439 90.8864 75.838 91.6087C75.0305 93.0496 74.2992 94.532 73.6473 96.0497C73.313 96.8018 73.0504 97.5718 72.7101 98.3419C72.3699 99.1119 72.1431 99.8938 71.9043 100.694C71.3976 102.279 70.9811 103.891 70.6567 105.523V105.66C70.5641 106.096 70.5951 106.548 70.7463 106.967C71.3247 108.498 72.0927 109.95 73.0325 111.289C73.9174 112.56 74.9035 113.758 75.9812 114.87C77.031 115.942 78.1454 116.949 79.318 117.885C80.4901 118.819 81.7202 119.679 83.0009 120.458C83.3119 120.639 83.6786 120.702 84.0322 120.633C84.3857 120.564 84.702 120.368 84.9216 120.082C85.1413 119.797 85.2493 119.441 85.2254 119.081C85.2014 118.722 85.0473 118.384 84.7917 118.13L84.7618 118.124Z" fill="#FF8B7B"/>
<path d="M91.6983 121.09L91.6208 120.935C91.373 120.418 91.0083 119.965 90.5556 119.613C90.1029 119.261 89.5746 119.019 89.0122 118.906L84.4816 117.986L82.2671 119.091C82.5059 121.574 86.0515 123.06 86.0515 123.06L87.0603 124.212C87.4005 124.598 87.8712 124.846 88.3824 124.906C88.8935 124.967 89.409 124.837 89.83 124.54L91.0238 123.687C91.4251 123.404 91.713 122.987 91.8365 122.512C91.96 122.037 91.911 121.533 91.6983 121.09Z" fill="#FF8B7B"/>
<path d="M80.697 83.9801C78.1839 85.1321 75.5098 89.1195 75.5098 89.1195L80.882 99.1776C80.882 99.1776 86.9884 92.1399 86.4751 88.6181C86.0573 85.6276 83.8964 82.5117 80.697 83.9801Z" fill="#407BFF"/>
<g opacity="0.3">
<path d="M80.697 83.9801C78.1839 85.1321 75.5098 89.1195 75.5098 89.1195L80.882 99.1776C80.882 99.1776 86.9884 92.1399 86.4751 88.6181C86.0573 85.6276 83.8964 82.5117 80.697 83.9801Z" fill="white"/>
</g>
<path d="M252.668 215.767C247.409 215.767 242.24 214.687 239.733 211.416C227.866 195.896 227.973 164.677 228.075 134.467C228.135 118.201 229.418 102.831 227.609 90.8923C226.547 83.8547 222.834 79.0256 219.085 76.5305C213.522 72.8535 205.882 74.8293 202.617 75.6709C202.21 75.7846 201.785 75.816 201.366 75.7632C200.947 75.7105 200.542 75.5747 200.176 75.3639C199.811 75.153 199.49 74.8713 199.235 74.5352C198.979 74.1991 198.793 73.8154 198.687 73.4065C198.582 72.9977 198.559 72.5718 198.62 72.154C198.681 71.7361 198.824 71.3346 199.042 70.9729C199.26 70.6113 199.548 70.2967 199.889 70.0477C200.231 69.7987 200.618 69.6202 201.029 69.5227C205.106 68.4662 214.668 66.0009 222.583 71.2299C227.926 74.7577 232.546 81.0551 233.889 89.9432C235.769 102.359 234.486 117.956 234.426 134.467C234.325 163.615 234.223 193.753 244.777 207.536C245.63 208.646 248.955 209.643 254.477 209.356C254.966 209.356 255.444 209.302 255.915 209.261C255.701 208.828 255.591 208.352 255.593 207.87C255.593 207.028 255.927 206.22 256.523 205.624C257.118 205.029 257.926 204.694 258.768 204.694C265.711 204.694 269.364 205.291 270.068 208.467C270.271 209.38 270.378 211.672 267.024 213.242C264.517 214.418 258.536 215.767 252.668 215.767Z" fill="#407BFF"/>
<path d="M183.175 218.507L176.699 215.958L180.113 204.73L186.596 207.273L183.175 218.507Z" fill="#FFC3BD"/>
<path d="M176.544 215.272L183.85 218.137C183.942 218.174 184.02 218.242 184.069 218.328C184.119 218.415 184.139 218.516 184.125 218.614L183.408 223.163C183.39 223.273 183.347 223.377 183.282 223.468C183.218 223.559 183.134 223.635 183.037 223.689C182.939 223.744 182.831 223.776 182.72 223.783C182.608 223.79 182.497 223.772 182.394 223.73C180.561 222.972 177.69 221.718 175.368 220.805C173.941 220.244 171.225 219.349 169.249 218.573C167.274 217.797 167.787 215.743 168.653 215.886C172.586 216.519 174.09 215.845 175.66 215.26C175.945 215.151 176.262 215.155 176.544 215.272Z" fill="#263238"/>
<path opacity="0.2" d="M186.595 207.279L180.113 204.73L178.352 210.52L184.835 213.069L186.595 207.279Z" fill="black"/>
<path d="M194.695 120.368C194.695 120.368 188.833 149.342 186.595 163.632C184.076 179.648 177.42 208.902 177.42 208.902L186.034 212.287C186.034 212.287 198.336 182.334 200.049 167.829C205.213 156.04 215.48 121.347 215.48 121.347L194.695 120.368Z" fill="#407BFF"/>
<path d="M177.002 208.95L186.458 212.669L188.075 209.804L177.504 205.423L177.002 208.95Z" fill="#263238"/>
<path d="M174.687 215.397C174.357 215.294 174.071 215.084 173.875 214.8C173.82 214.695 173.792 214.578 173.792 214.46C173.792 214.341 173.82 214.225 173.875 214.12C173.899 214.055 173.941 213.998 173.996 213.956C174.051 213.914 174.116 213.888 174.185 213.881C174.812 213.815 175.976 215.343 176.089 215.522C176.102 215.542 176.109 215.565 176.109 215.588C176.109 215.611 176.102 215.634 176.089 215.654C176.077 215.673 176.059 215.689 176.038 215.698C176.017 215.708 175.993 215.711 175.97 215.707C175.532 215.651 175.102 215.547 174.687 215.397ZM174.37 214.149C174.322 214.126 174.269 214.115 174.215 214.12C174.179 214.12 174.137 214.12 174.096 214.221C174.056 214.292 174.035 214.372 174.035 214.454C174.035 214.535 174.056 214.615 174.096 214.687C174.269 215.003 174.866 215.284 175.731 215.427C175.368 214.914 174.905 214.48 174.37 214.149Z" fill="#407BFF"/>
<path d="M175.958 215.701C175.939 215.695 175.922 215.682 175.911 215.666C175.529 215.212 174.991 213.809 175.314 213.326C175.363 213.251 175.437 213.195 175.523 213.168C175.609 213.141 175.701 213.144 175.785 213.176C175.874 213.199 175.957 213.24 176.029 213.296C176.101 213.353 176.16 213.424 176.203 213.505C176.573 214.167 176.155 215.564 176.137 215.624C176.13 215.645 176.118 215.664 176.101 215.679C176.084 215.693 176.064 215.703 176.042 215.707C176.029 215.714 176.014 215.717 175.999 215.716C175.985 215.715 175.97 215.71 175.958 215.701ZM175.755 213.421H175.708C175.552 213.385 175.517 213.421 175.499 213.475C175.32 213.761 175.612 214.776 175.952 215.331C176.123 214.779 176.123 214.188 175.952 213.636C175.915 213.543 175.845 213.467 175.755 213.421Z" fill="#407BFF"/>
<path opacity="0.2" d="M207.332 137.911C204.085 141.935 202.802 152.19 202.814 160.737C205.004 154.703 207.517 147.038 209.726 140.078L207.332 137.911Z" fill="black"/>
<path d="M222.154 219.587H215.194L214.269 207.888H221.229L222.154 219.587Z" fill="#FFC3BD"/>
<path d="M214.799 219.002H222.649C222.749 219.002 222.847 219.036 222.926 219.099C223.004 219.162 223.058 219.25 223.079 219.349L224.076 223.837C224.099 223.947 224.097 224.06 224.071 224.169C224.044 224.278 223.993 224.38 223.922 224.466C223.851 224.553 223.762 224.622 223.66 224.669C223.558 224.717 223.447 224.74 223.335 224.739C221.354 224.703 218.232 224.583 215.737 224.583C214.197 224.583 211.343 224.745 209.224 224.745C207.105 224.745 206.837 222.649 207.69 222.458C211.588 221.605 212.746 220.435 213.988 219.313C214.211 219.114 214.5 219.004 214.799 219.002Z" fill="#263238"/>
<path opacity="0.2" d="M221.228 207.888H214.262L214.746 213.923H221.712L221.228 207.888Z" fill="black"/>
<path d="M203.124 120.732C203.124 120.732 206.98 153.019 207.792 164.641C208.92 180.818 213.284 212.753 213.284 212.753H222.536C222.536 212.753 223.527 180.137 221.855 165.626C224.159 152.966 223.431 121.705 223.431 121.705L203.124 120.732Z" fill="#407BFF"/>
<path d="M212.913 212.95H223.073L223.532 209.696L212.089 209.482L212.913 212.95Z" fill="#263238"/>
<path d="M213.098 219.796C212.754 219.822 212.412 219.732 212.125 219.54C212.036 219.462 211.967 219.363 211.924 219.253C211.88 219.143 211.863 219.025 211.875 218.907C211.875 218.836 211.894 218.767 211.931 218.707C211.968 218.647 212.021 218.598 212.083 218.567C212.645 218.28 214.274 219.283 214.471 219.396C214.492 219.408 214.509 219.426 214.519 219.447C214.53 219.468 214.534 219.492 214.531 219.516C214.525 219.54 214.514 219.562 214.497 219.579C214.48 219.597 214.459 219.61 214.435 219.617C213.998 219.727 213.549 219.787 213.098 219.796ZM212.346 218.752C212.293 218.748 212.239 218.759 212.191 218.781C212.161 218.781 212.125 218.829 212.119 218.919C212.107 218.999 212.115 219.081 212.143 219.158C212.172 219.234 212.219 219.302 212.28 219.354C212.555 219.587 213.218 219.617 214.071 219.444C213.552 219.106 212.972 218.871 212.364 218.752H212.346Z" fill="#407BFF"/>
<path d="M214.412 219.617H214.352C213.833 219.331 212.818 218.226 212.925 217.659C212.943 217.571 212.991 217.492 213.061 217.436C213.131 217.379 213.218 217.348 213.307 217.349C213.398 217.336 213.49 217.343 213.577 217.368C213.665 217.394 213.746 217.438 213.815 217.498C214.412 217.982 214.525 219.438 214.531 219.498C214.532 219.52 214.528 219.541 214.519 219.561C214.509 219.581 214.495 219.598 214.477 219.611C214.456 219.618 214.434 219.62 214.412 219.617ZM213.391 217.57H213.337C213.182 217.57 213.17 217.665 213.164 217.695C213.098 218.023 213.761 218.889 214.262 219.259C214.226 218.682 214.018 218.129 213.666 217.671C213.588 217.608 213.491 217.572 213.391 217.57Z" fill="#407BFF"/>
<path d="M206.318 76.2082L200.743 76.1365C198.868 76.1365 197.006 76.0769 195.161 76.047C194.6 76.047 194.051 76.0112 193.496 75.9873C193.532 75.9873 193.556 75.9217 193.586 75.8918C193.98 75.474 194.373 75.0442 194.779 74.6323C194.982 74.4174 195.181 74.2085 195.376 74.0056C195.561 73.8026 195.8 73.5758 195.925 73.4086L196.433 72.764C196.833 72.2538 197.062 71.6307 197.088 70.9829C197.114 70.3352 196.935 69.6958 196.577 69.1554C196.219 68.615 195.7 68.2011 195.093 67.9724C194.486 67.7437 193.823 67.7118 193.198 67.8812L192.093 68.1797C191.753 68.2811 191.413 68.3945 191.073 68.508C190.404 68.7408 189.747 68.9974 189.097 69.278C187.786 69.8569 186.519 70.5312 185.306 71.2956C184.05 72.0982 182.863 73.0026 181.755 73.9996C180.582 75.0658 179.52 76.2477 178.585 77.5274C178.349 77.8467 178.149 78.191 177.988 78.554C177.434 79.8246 177.407 81.2632 177.912 82.5538C178.418 83.8444 179.416 84.8812 180.686 85.4365L181.229 85.6753C182.456 86.203 183.726 86.6224 185.026 86.9288C186.16 87.2213 187.234 87.4123 188.291 87.5913C189.347 87.7704 190.38 87.9137 191.407 88.039C192.434 88.1644 193.448 88.2599 194.463 88.3435C196.487 88.5225 198.492 88.6121 200.492 88.6718C202.492 88.7315 204.449 88.7315 206.527 88.636C208.146 88.5668 209.675 87.868 210.787 86.6883C211.899 85.5086 212.507 83.9413 212.481 82.3202C212.454 80.6992 211.796 79.1526 210.646 78.0098C209.496 76.867 207.945 76.2184 206.324 76.2022L206.318 76.2082Z" fill="#FFC3BD"/>
<path d="M209.564 87.1019C204.747 92.5935 193.155 90.5401 193.155 90.5401L193.794 76.8588C197.767 75.9844 201.819 75.5144 205.887 75.4561C212.692 75.4441 213.421 82.6967 209.564 87.1019Z" fill="#263238"/>
<path d="M196.707 82.8936C196.42 85.1022 196.11 88.0749 195.925 92.0742C193.412 104.789 192.475 113.796 194.695 120.368C196.45 122.535 219.318 122.117 223.431 121.699C225.818 115.79 226.069 98.8253 226.35 84.565C226.385 82.6 225.715 80.6873 224.461 79.1739C223.207 77.6605 221.452 76.6464 219.515 76.3156C214.369 75.4034 209.119 75.2266 203.924 75.7903C202.1 75.9978 200.398 76.8101 199.09 78.0976C197.782 79.3851 196.943 81.0736 196.707 82.8936Z" fill="#263238"/>
<path opacity="0.2" d="M218.895 91.5728C218.972 95.9184 222.124 102.86 225.67 106.382C225.884 102.711 226.022 98.7298 226.129 94.7126L218.895 91.5728Z" fill="black"/>
<path d="M238.819 100.019L238.616 99.5416C237.782 97.5506 236.807 95.6216 235.697 93.7694C234.635 91.9787 233.489 90.2894 232.301 88.6599C231.113 87.0303 229.854 85.4723 228.564 83.9562C227.908 83.204 227.257 82.4519 226.571 81.7237L225.538 80.6373L224.44 79.527C223.289 78.391 221.741 77.7477 220.125 77.7333C218.508 77.7189 216.949 78.3347 215.779 79.4501C214.608 80.5655 213.918 82.0928 213.854 83.7084C213.791 85.324 214.359 86.9008 215.438 88.1047L215.617 88.3017L219.121 92.1996C220.315 93.5247 221.455 94.8737 222.589 96.2168C223.138 96.8913 223.705 97.5658 224.219 98.2523C224.732 98.9387 225.275 99.6013 225.789 100.282C226.529 101.314 227.245 102.341 227.884 103.35C227.786 103.859 227.663 104.363 227.514 104.86C227.085 106.306 226.581 107.729 226.004 109.122C225.407 110.596 224.774 112.107 224.117 113.593C223.461 115.079 222.756 116.631 222.13 118.124L222.07 118.255C221.795 118.915 221.753 119.648 221.952 120.335C222.15 121.021 222.577 121.62 223.161 122.031C223.746 122.442 224.453 122.642 225.166 122.597C225.879 122.551 226.556 122.264 227.084 121.783C228.401 120.562 229.65 119.271 230.827 117.915C232.02 116.574 233.141 115.161 234.187 113.677C234.718 112.93 235.226 112.154 235.727 111.349C236.248 110.529 236.724 109.682 237.154 108.812C237.637 107.862 238.056 106.881 238.407 105.875C238.865 104.587 239.123 103.236 239.171 101.87C239.187 101.235 239.067 100.604 238.819 100.019Z" fill="#FFC3BD"/>
<path d="M219.922 76.3932C227.974 77.7721 233.221 88.6718 233.221 88.6718L223.515 99.1118C223.515 99.1118 217.922 93.4172 214.561 88.1405C210.938 82.3982 214.155 75.4143 219.922 76.3932Z" fill="#263238"/>
<path d="M205.213 59.208C203.864 56.9457 203.423 53.8358 205.894 50.6662C205.412 50.7265 204.924 50.6459 204.487 50.4339C204.051 50.222 203.685 49.888 203.435 49.4723C206.141 47.2584 209.543 46.0742 213.039 46.1296C220.262 46.1296 220.799 48.9172 220.554 50.8214C225.497 51.1377 229.102 63.9893 216.573 66.2636C209.404 58.7126 205.213 59.208 205.213 59.208Z" fill="#263238"/>
<path d="M220.101 51.0542C220.101 51.0542 222.112 49.0008 219.611 46.5176C220.172 46.6714 220.683 46.9677 221.095 47.3778C221.508 47.7878 221.807 48.2976 221.963 48.8575C222.315 50.3021 221.342 51.4601 220.101 51.0542Z" fill="#263238"/>
<path d="M217.331 64.6937C217.14 68.6512 216.781 73.152 217.444 76.3097C216.417 77.9273 213.791 79.7897 209.087 80.2075C207.416 79.2584 205.207 76.9364 205.977 75.7426C207.977 74.4592 208.825 70.5733 208.252 67.6663L217.331 64.6937Z" fill="#FFC3BD"/>
<path opacity="0.2" d="M215.038 65.4398L208.239 67.6663C208.47 68.9043 208.481 70.1734 208.269 71.4149C210.299 71.3493 213.11 69.8212 214.167 68.3886C214.511 67.9858 214.766 67.5151 214.916 67.007C215.067 66.499 215.108 65.965 215.038 65.4398Z" fill="black"/>
<path d="M219.312 58.4261C218.053 63.279 217.563 66.186 214.591 68.2215C210.12 71.2836 204.497 67.8514 204.276 62.7239C204.085 58.1038 206.174 50.9408 211.367 49.92C212.511 49.6907 213.694 49.7576 214.804 50.1142C215.915 50.4709 216.916 51.1055 217.712 51.9578C218.508 52.8101 219.073 53.8517 219.353 54.9839C219.633 56.116 219.619 57.3009 219.312 58.4261Z" fill="#FFC3BD"/>
<path d="M218.31 51.478C216.179 52.9941 213.534 59.4169 218.907 61.9956C223.73 57.7575 222.482 51.478 218.31 51.478Z" fill="#263238"/>
<path d="M219.539 52.248C220.453 48.0218 209.786 45.8371 206.407 50.7736C205.261 53.7462 218.895 56.3727 219.539 52.248Z" fill="#263238"/>
<path d="M211.582 63.5775C210.474 63.0764 209.286 62.7752 208.072 62.688C208.055 62.688 208.038 62.6915 208.023 62.6981C208.007 62.7048 207.993 62.7146 207.981 62.7269C207.97 62.7391 207.961 62.7537 207.955 62.7696C207.949 62.7855 207.946 62.8024 207.947 62.8194C207.954 62.858 207.973 62.8931 208.002 62.9192C208.032 62.9452 208.069 62.9605 208.108 62.9626C209.271 63.0467 210.411 63.3336 211.475 63.8103C211.508 63.8249 211.546 63.8263 211.58 63.8141C211.615 63.8019 211.643 63.777 211.66 63.7446C211.666 63.7286 211.67 63.7114 211.669 63.6941C211.669 63.6768 211.665 63.6597 211.658 63.644C211.65 63.6283 211.64 63.6143 211.627 63.6029C211.614 63.5914 211.599 63.5827 211.582 63.5775Z" fill="#263238"/>
<path d="M220.476 63.7326C219.611 64.6508 218.418 65.1894 217.157 65.2309C215.486 65.2667 215.062 63.6729 215.868 62.312C216.596 61.1181 218.339 59.59 219.855 60.1989C221.372 60.8077 221.527 62.5925 220.476 63.7326Z" fill="#FFC3BD"/>
<path d="M211.594 58.3425C211.517 58.7424 211.242 59.029 210.997 58.9752C210.753 58.9215 210.591 58.5574 210.669 58.1575C210.747 57.7575 211.021 57.477 211.266 57.5606C211.511 57.6441 211.672 57.9247 211.594 58.3425Z" fill="#263238"/>
<path d="M207.075 57.4651C206.998 57.865 206.723 58.1455 206.478 58.0978C206.234 58.05 206.067 57.6799 206.144 57.28C206.222 56.8801 206.496 56.5936 206.741 56.6473C206.986 56.701 207.129 57.0651 207.075 57.4651Z" fill="#263238"/>
<path d="M208.472 57.9247C207.756 59.0544 206.888 60.0807 205.894 60.9749C206.49 61.7688 207.81 61.6136 207.81 61.6136L208.472 57.9247Z" fill="#ED847E"/>
<path d="M210.944 56.0205C210.986 56.0112 211.03 56.0129 211.072 56.0254C211.114 56.0379 211.152 56.0609 211.182 56.0922C211.374 56.3238 211.618 56.5068 211.894 56.6261C212.17 56.7454 212.47 56.7977 212.77 56.7786C212.833 56.77 212.897 56.7864 212.949 56.8243C213 56.8622 213.034 56.9186 213.045 56.9816C213.05 57.0126 213.048 57.0444 213.041 57.0749C213.033 57.1055 213.02 57.1342 213.001 57.1593C212.982 57.1844 212.958 57.2054 212.931 57.221C212.903 57.2366 212.873 57.2465 212.842 57.2502C212.463 57.2807 212.082 57.2202 211.731 57.0738C211.38 56.9274 211.069 56.6993 210.824 56.4085C210.802 56.3868 210.784 56.3609 210.772 56.3321C210.76 56.3034 210.753 56.2726 210.753 56.2414C210.753 56.2102 210.76 56.1794 210.772 56.1506C210.784 56.1219 210.802 56.096 210.824 56.0742C210.86 56.0479 210.9 56.0296 210.944 56.0205Z" fill="#263238"/>
<path d="M205.679 54.6954C205.629 54.6851 205.585 54.6576 205.553 54.6178C205.533 54.5929 205.518 54.5642 205.51 54.5335C205.501 54.5027 205.498 54.4705 205.502 54.4388C205.506 54.4071 205.516 54.3764 205.532 54.3487C205.548 54.321 205.57 54.2968 205.595 54.2775C205.888 54.0372 206.235 53.8702 206.605 53.7903C206.976 53.7104 207.36 53.7198 207.726 53.8179C207.787 53.8384 207.837 53.8817 207.866 53.9385C207.895 53.9954 207.9 54.0614 207.881 54.1223C207.857 54.1799 207.813 54.2269 207.757 54.2543C207.701 54.2818 207.637 54.2879 207.577 54.2715C207.285 54.1971 206.98 54.193 206.686 54.2594C206.393 54.3258 206.119 54.4609 205.888 54.6536C205.86 54.6786 205.826 54.6957 205.789 54.7031C205.752 54.7104 205.714 54.7078 205.679 54.6954Z" fill="#263238"/>
<path d="M224.947 117.95L219.819 117.915L222.47 123.8C222.47 123.8 226.845 122.863 226.606 120.487L224.947 117.95Z" fill="#FFC3BD"/>
<path d="M217.212 121.956L218.053 123.615C218.279 124.057 218.662 124.399 219.127 124.573C219.592 124.747 220.105 124.742 220.566 124.558L222.47 123.8L219.82 117.915L217.785 119.467C217.412 119.748 217.15 120.152 217.045 120.607C216.941 121.062 216.999 121.54 217.212 121.956Z" fill="#FFC3BD"/>
<path d="M185.915 113.617C185.295 113.61 184.691 113.423 184.177 113.079C183.662 112.734 183.259 112.246 183.018 111.676C182.776 111.105 182.707 110.477 182.817 109.867C182.928 109.258 183.214 108.694 183.641 108.245C185.921 105.893 187.98 104.066 189.795 102.472C194.176 98.6104 195.686 97.1002 195.543 94.2052C195.329 92.4189 194.949 90.6564 194.409 88.9404C193.102 84.1352 191.621 78.6973 194.158 74.3338C195.519 71.988 197.829 70.3823 201.029 69.5585C201.838 69.3665 202.69 69.4994 203.402 69.9287C204.114 70.3579 204.629 71.0493 204.837 71.8542C205.045 72.6592 204.929 73.5136 204.513 74.2339C204.098 74.9542 203.417 75.483 202.617 75.7067C200.366 76.3037 199.823 77.2169 199.632 77.5273C198.438 79.5867 199.59 83.8487 200.521 87.269C201.196 89.4258 201.648 91.646 201.87 93.8948C202.169 100.013 198.558 103.201 193.979 107.236C192.254 108.764 190.29 110.495 188.177 112.668C187.882 112.969 187.53 113.208 187.142 113.371C186.753 113.534 186.336 113.618 185.915 113.617Z" fill="#407BFF"/>
<path d="M192.881 68.0125L197.847 66.7411L196.689 73.0923C196.689 73.0923 192.219 73.2296 191.884 70.8717L192.881 68.0125Z" fill="#FFC3BD"/>
<path d="M201.333 70.1077L200.951 71.7671C200.834 72.274 200.531 72.7186 200.102 73.0136C199.674 73.3085 199.15 73.4324 198.635 73.3609L196.689 73.0923L197.847 66.7411L200.127 67.726C200.575 67.919 200.941 68.2631 201.162 68.6983C201.382 69.1336 201.443 69.6323 201.333 70.1077Z" fill="#FFC3BD"/>
<path d="M184.139 103.172L184.004 103.037C183.4 102.434 182.421 102.434 181.818 103.038L164.216 120.646C163.612 121.25 163.612 122.229 164.216 122.832L164.351 122.967C164.955 123.571 165.934 123.571 166.537 122.967L184.14 105.359C184.743 104.755 184.743 103.776 184.139 103.172Z" fill="#263238"/>
<path d="M193.314 112.335L193.179 112.199C192.575 111.596 191.596 111.596 190.992 112.199L173.387 129.805C172.783 130.408 172.783 131.387 173.387 131.991L173.522 132.126C174.126 132.73 175.105 132.73 175.709 132.126L193.314 114.521C193.917 113.917 193.917 112.938 193.314 112.335Z" fill="#263238"/>
<path d="M169.77 109.727L182.175 97.3218C182.572 96.9244 183.044 96.6092 183.563 96.3941C184.082 96.179 184.639 96.0683 185.201 96.0683C185.763 96.0683 186.319 96.179 186.839 96.3941C187.358 96.6092 187.83 96.9244 188.227 97.3218L199.071 108.165C199.468 108.563 199.783 109.034 199.998 109.554C200.213 110.073 200.324 110.629 200.324 111.191C200.324 111.754 200.213 112.31 199.998 112.829C199.783 113.349 199.468 113.82 199.071 114.218L186.666 126.623L169.77 109.727Z" fill="#407BFF"/>
<path opacity="0.7" d="M169.77 109.727L182.175 97.3218C182.572 96.9244 183.044 96.6092 183.563 96.3941C184.082 96.179 184.639 96.0683 185.201 96.0683C185.763 96.0683 186.319 96.179 186.839 96.3941C187.358 96.6092 187.83 96.9244 188.227 97.3218L199.071 108.165C199.468 108.563 199.783 109.034 199.998 109.554C200.213 110.073 200.324 110.629 200.324 111.191C200.324 111.754 200.213 112.31 199.998 112.829C199.783 113.349 199.468 113.82 199.071 114.218L186.666 126.623L169.77 109.727Z" fill="white"/>
<path opacity="0.2" d="M174.048 105.415L169.75 109.707L186.649 126.606L190.941 122.308C190.77 121.808 190.486 121.355 190.111 120.983L175.373 106.275C175.005 105.889 174.551 105.595 174.048 105.415Z" fill="#407BFF"/>
<path d="M169.026 107.543L168.718 107.851C167.408 109.161 167.408 111.285 168.718 112.595L183.765 127.642C185.075 128.952 187.199 128.952 188.509 127.642L188.817 127.334C190.127 126.024 190.127 123.9 188.817 122.59L173.77 107.543C172.46 106.233 170.336 106.233 169.026 107.543Z" fill="#407BFF"/>
<path d="M215.797 0H82.6608C79.885 0 77.6348 2.25023 77.6348 5.02603V29.3086C77.6348 32.0844 79.885 34.3346 82.6608 34.3346H215.797C218.573 34.3346 220.823 32.0844 220.823 29.3086V5.02603C220.823 2.25023 218.573 0 215.797 0Z" fill="white"/>
<path d="M149.229 51.9734C155.341 51.9734 160.296 47.0187 160.296 40.9066C160.296 34.7946 155.341 29.8398 149.229 29.8398C143.117 29.8398 138.162 34.7946 138.162 40.9066C138.162 47.0187 143.117 51.9734 149.229 51.9734Z" fill="#263238"/>
<path d="M149.229 50.3259C154.431 50.3259 158.648 46.1088 158.648 40.9066C158.648 35.7044 154.431 31.4873 149.229 31.4873C144.027 31.4873 139.81 35.7044 139.81 40.9066C139.81 46.1088 144.027 50.3259 149.229 50.3259Z" fill="white"/>
<path d="M155.598 38.8771H151.181L154.888 27.9118L142.86 42.9362H147.277L143.57 53.9015L155.598 38.8771Z" fill="#407BFF"/>
<path d="M155.976 48.9666L157.292 47.6497L142.482 32.8388L141.165 34.1557L155.976 48.9666Z" fill="#263238"/>
</svg>
