<svg width="60" height="60" viewBox="0 0 60 60" fill="none" xmlns="http://www.w3.org/2000/svg">
<defs>
<filter id="filter0_f_1101_20896" x="-5.49153" y="-5.89526" width="68.2531" height="67.8724" filterUnits="userSpaceOnUse" color-interpolation-filters="sRGB">
<feFlood flood-opacity="0" result="BackgroundImageFix"/>
<feBlend mode="normal" in="SourceGraphic" in2="BackgroundImageFix" result="shape"/>
<feGaussianBlur stdDeviation="12" result="effect1_foregroundBlur_1101_20896"/>
</filter>
<filter id="filter1_b_1101_20896" x="-5.57415" y="-5.57434" width="80.5743" height="80.5743" filterUnits="userSpaceOnUse" color-interpolation-filters="sRGB">
<feFlood flood-opacity="0" result="BackgroundImageFix"/>
<feGaussianBlur in="BackgroundImage" stdDeviation="12"/>
<feComposite in2="SourceAlpha" operator="in" result="effect1_backgroundBlur_1101_20896"/>
<feBlend mode="normal" in="SourceGraphic" in2="effect1_backgroundBlur_1101_20896" result="shape"/>
</filter>
<linearGradient id="paint0_linear_1101_20896" x1="24.2928" y1="22.9876" x2="43.796" y2="47.1428" gradientUnits="userSpaceOnUse">
<stop stop-color="white" stop-opacity="0.25"/>
<stop offset="1" stop-color="white" stop-opacity="0"/>
</linearGradient>
<linearGradient id="paint1_linear_1101_20896" x1="34.7131" y1="28.3498" x2="32.237" y2="28.1541" gradientUnits="userSpaceOnUse">
<stop offset="0.9999" stop-color="white"/>
<stop offset="1" stop-color="white" stop-opacity="0.2"/>
</linearGradient>
<clipPath id="clip0_1101_20896">
<rect width="60" height="60" rx="10" fill="white"/>
</clipPath>
</defs>
<g clip-path="url(#clip0_1101_20896)">
<path d="M31.1748 12.2395L18.3725 15.6699C13.3667 17.0111 10.9417 21.4276 12.3423 26.6549L15.5753 38.7204C16.9719 43.9329 21.2799 46.5437 26.2857 45.2024L39.0881 41.772C44.0938 40.4307 46.5045 36.0197 45.1078 30.8072L41.8749 18.7417C40.4742 13.5144 36.1806 10.8982 31.1748 12.2395V12.2395Z" fill="#026DE1"/>
<g filter="url(#filter0_f_1101_20896)">
<rect x="21.4" y="40.1917" width="19.7282" height="20.2665" rx="9.8641" transform="rotate(-105 21.4 40.1917)" fill="#37A3ED" fill-opacity="0.2"/>
</g>
<path fill-rule="evenodd" clip-rule="evenodd" d="M25.931 23.4427C26.1206 24.15 26.8511 24.5731 27.5452 24.3871C28.2835 24.1893 28.7047 23.4576 28.5151 22.7503C28.3213 22.0268 27.5911 21.6052 26.8823 21.7951C26.1587 21.989 25.7372 22.7192 25.931 23.4427ZM30.5485 35.5954C31.2721 35.4016 31.6936 34.6714 31.5037 33.9626L29.7549 27.4359C29.5646 26.7256 28.8308 26.2908 28.1073 26.4847C27.3985 26.6746 26.9805 27.4181 27.1708 28.1283L28.9196 34.655C29.1095 35.3638 29.8397 35.7854 30.5485 35.5954Z" fill="white"/>
<g filter="url(#filter1_b_1101_20896)">
<path d="M41.3477 19.4257H28.0937C22.9113 19.4257 19.4258 23.064 19.4258 28.4757V40.9668C19.4258 46.3632 22.9113 50 28.0937 50H41.3477C46.53 50 50.0002 46.3632 50.0002 40.9668V28.4757C50.0002 23.064 46.53 19.4257 41.3477 19.4257V19.4257Z" fill="#026DE1"/>
<path d="M41.3477 18.9257H28.0937C25.3811 18.9257 23.0786 19.8806 21.4553 21.5754C19.8337 23.2684 18.9258 25.6614 18.9258 28.4757V40.9668C18.9258 43.7737 19.834 46.1626 21.4555 47.8532C23.0789 49.5455 25.3812 50.5 28.0937 50.5H41.3477C44.0602 50.5 46.359 49.5454 47.9786 47.8527C49.5963 46.162 50.5002 43.7731 50.5002 40.9668V28.4757C50.5002 25.6621 49.5965 23.269 47.9788 21.5759C46.3592 19.8807 44.0603 18.9257 41.3477 18.9257Z" stroke="url(#paint0_linear_1101_20896)" stroke-linecap="round" stroke-linejoin="round"/>
</g>
<path fill-rule="evenodd" clip-rule="evenodd" d="M33.3828 28.8897C33.3828 29.622 33.979 30.2197 34.6975 30.2197C35.4618 30.2197 36.058 29.622 36.058 28.8897C36.058 28.1406 35.4618 27.5444 34.728 27.5444C33.979 27.5444 33.3828 28.1406 33.3828 28.8897ZM34.6975 41.8229C35.4466 41.8229 36.0428 41.2267 36.0428 40.4929V33.736C36.0428 33.0007 35.4466 32.3907 34.6975 32.3907C33.9637 32.3907 33.3675 33.0007 33.3675 33.736V40.4929C33.3675 41.2267 33.9637 41.8229 34.6975 41.8229Z" fill="url(#paint1_linear_1101_20896)"/>
</g>
</svg>
