<svg width="60" height="60" viewBox="0 0 60 60" fill="none" xmlns="http://www.w3.org/2000/svg">
<defs>
<filter id="filter0_f_1101_20900" x="0.388123" y="0.755371" width="55.8204" height="55.0813" filterUnits="userSpaceOnUse" color-interpolation-filters="sRGB">
<feFlood flood-opacity="0" result="BackgroundImageFix"/>
<feBlend mode="normal" in="SourceGraphic" in2="BackgroundImageFix" result="shape"/>
<feGaussianBlur stdDeviation="8.5" result="effect1_foregroundBlur_1101_20900"/>
</filter>
<filter id="filter1_b_1101_20900" x="-5.85332" y="-5.85364" width="79.8781" height="79.8781" filterUnits="userSpaceOnUse" color-interpolation-filters="sRGB">
<feFlood flood-opacity="0" result="BackgroundImageFix"/>
<feGaussianBlur in="BackgroundImage" stdDeviation="12"/>
<feComposite in2="SourceAlpha" operator="in" result="effect1_backgroundBlur_1101_20900"/>
<feBlend mode="normal" in="SourceGraphic" in2="effect1_backgroundBlur_1101_20900" result="shape"/>
</filter>
<filter id="filter2_b_1101_20900" x="12.5746" y="12.5454" width="43.622" height="43.6396" filterUnits="userSpaceOnUse" color-interpolation-filters="sRGB">
<feFlood flood-opacity="0" result="BackgroundImageFix"/>
<feGaussianBlur in="BackgroundImage" stdDeviation="7.5"/>
<feComposite in2="SourceAlpha" operator="in" result="effect1_backgroundBlur_1101_20900"/>
<feBlend mode="normal" in="SourceGraphic" in2="effect1_backgroundBlur_1101_20900" result="shape"/>
</filter>
<linearGradient id="paint0_linear_1101_20900" x1="23.9028" y1="22.6272" x2="53.4634" y2="55.8103" gradientUnits="userSpaceOnUse">
<stop stop-color="white" stop-opacity="0.25"/>
<stop offset="1" stop-color="white" stop-opacity="0"/>
</linearGradient>
<linearGradient id="paint1_linear_1101_20900" x1="40.2309" y1="30.0084" x2="25.0572" y2="30.5025" gradientUnits="userSpaceOnUse">
<stop offset="0.9999" stop-color="white"/>
<stop offset="1" stop-color="white" stop-opacity="0.2"/>
</linearGradient>
</defs>
<path d="M31.1788 12.0589L17.6967 15.6714C12.7836 16.9879 10.7458 20.5172 12.0621 25.4298L15.6709 38.8978C16.9872 43.8104 20.5167 45.8479 25.4297 44.5314L38.9118 40.9189C43.8249 39.6025 45.8499 36.0766 44.5336 31.164L40.9248 17.696C39.6085 12.7834 36.0919 10.7425 31.1788 12.0589Z" fill="#026DE1"/>
<g opacity="0.5" filter="url(#filter0_f_1101_20900)">
<path d="M30.3255 18.0245L21.4143 20.4123C18.1669 21.2824 16.7961 23.5263 17.6242 26.6167L19.8944 35.0891C20.7224 38.1795 23.0315 39.4374 26.2789 38.5673L35.1901 36.1795C38.4375 35.3094 39.7997 33.0677 38.9717 29.9773L36.7015 21.505C35.8734 18.4146 33.5728 17.1544 30.3255 18.0245Z" fill="#37A3ED" fill-opacity="0.2"/>
</g>
<g filter="url(#filter1_b_1101_20900)">
<path d="M40.5693 19.1464H27.6171C22.5528 19.1464 19.1467 22.7019 19.1467 27.9903V40.1955C19.1467 45.4689 22.5528 49.0244 27.6171 49.0244H40.5693C45.6336 49.0244 49.0248 45.4689 49.0248 40.1955V27.9903C49.0248 22.7019 45.6336 19.1464 40.5693 19.1464Z" fill="#026DE1"/>
<path d="M40.5693 18.6464H27.6171C24.9636 18.6464 22.7104 19.5806 21.1217 21.2393C19.5347 22.8961 18.6467 25.2377 18.6467 27.9903V40.1955C18.6467 42.9409 19.535 45.2788 21.1219 46.9336C22.7106 48.5902 24.9636 49.5244 27.6171 49.5244H40.5693C43.2229 49.5244 45.4724 48.5901 47.0574 46.9331C48.6406 45.2781 49.5248 42.9403 49.5248 40.1955V27.9903C49.5248 25.2383 48.6408 22.8968 47.0576 21.2398C45.4725 19.5807 43.2229 18.6464 40.5693 18.6464Z" stroke="url(#paint0_linear_1101_20900)" stroke-linecap="round" stroke-linejoin="round"/>
</g>
<g filter="url(#filter2_b_1101_20900)">
<path d="M36.3181 27.9045C36.0587 27.6666 35.7174 27.5381 35.3655 27.5457C35.0136 27.5534 34.6783 27.6966 34.4294 27.9454L27.9747 34.4011C27.8479 34.5279 27.7473 34.6785 27.6786 34.8442C27.61 35.0099 27.5746 35.1875 27.5746 35.3669C27.5746 35.5463 27.61 35.7239 27.6786 35.8896C27.7473 36.0554 27.8479 36.2059 27.9747 36.3328L28.8781 37.2352C29.2167 37.5747 29.7035 37.4928 29.9903 37.3015C30.1967 37.1644 30.4443 37.1028 30.6909 37.1274C30.9375 37.152 31.168 37.2612 31.3432 37.4365C31.5185 37.6117 31.6277 37.8422 31.6523 38.0888C31.6769 38.3354 31.6153 38.5829 31.4781 38.7893C31.2879 39.0762 31.2059 39.564 31.5445 39.9025L32.4274 40.7845C32.5567 40.9139 32.7106 41.016 32.8801 41.0848C33.0496 41.1536 33.2312 41.1876 33.4141 41.1849C33.597 41.1821 33.7775 41.1427 33.9448 41.0689C34.1122 40.9951 34.263 40.8884 34.3884 40.7552L40.8255 33.9142C40.9494 33.7825 41.0459 33.6276 41.1095 33.4583C41.173 33.289 41.2024 33.1088 41.1957 32.9281C41.1891 32.7474 41.1467 32.5698 41.0709 32.4057C40.9951 32.2415 40.8875 32.094 40.7542 31.9718L39.8899 31.1786C39.7947 31.0937 39.681 31.0321 39.5579 30.9988C39.4348 30.9654 39.3056 30.9612 39.1806 30.9864C38.9591 31.0254 38.7494 31.1425 38.5972 31.3084C38.5019 31.4123 38.3871 31.4964 38.2594 31.5559C38.1316 31.6155 37.9933 31.6493 37.8525 31.6554C37.7117 31.6615 37.571 31.6398 37.4386 31.5916C37.3061 31.5433 37.1845 31.4695 37.0806 31.3742C36.8707 31.1818 36.7459 30.914 36.7336 30.6296C36.7274 30.4887 36.7491 30.3481 36.7974 30.2156C36.8456 30.0832 36.9195 29.9615 37.0147 29.8576C37.1679 29.6937 37.2664 29.4742 37.2869 29.2498C37.301 29.1232 37.2854 28.995 37.2414 28.8755C37.1974 28.7559 37.1261 28.6483 37.0333 28.5611L36.3181 27.9045Z" fill="url(#paint1_linear_1101_20900)"/>
</g>
</svg>
